<svg id="github" xmlns="http://www.w3.org/2000/svg" viewBox="0 0 380.02 371.37" fill="#fff">
  <path d="M578.26,376.59a190.1,190.1,0,0,1-132.15,181c-6.53.75-10.75-3.27-10.75-10.63,0-15.09,0-30.19.17-45.28.21-14.54-1.52-28.39-12.27-39.4,8.74-1.75,17.37-3.05,25.77-5.24,19.16-5,35.65-14.28,46.84-31.26,9-13.61,12.59-28.91,13.82-44.89,1.07-13.79.91-27.6-5.15-40.36-3.33-7-8.14-13.34-12.15-20.06-.72-1.21-1.43-3-1.06-4.2,4.58-14.89,3.31-29.49-1.35-44.12-1.16-3.66-3.41-4.53-6.34-3.92-7.05,1.47-14.35,2.54-20.92,5.27-8.37,3.47-16.07,8.49-24.16,12.65a8.67,8.67,0,0,1-5.47.92,186.8,186.8,0,0,0-90.15,0,8.47,8.47,0,0,1-5.78-1.11c-12-7.32-24.13-14.1-38.08-17-11-2.27-12.35-1.46-15.09,9.39-3.25,12.84-3.56,25.62.75,38.34a3.83,3.83,0,0,1-.66,3.19c-16.31,18.32-20.11,40-17.65,63.56,1.56,14.95,5.09,29.23,13.39,42,11.17,17.14,27.68,26.62,47,31.7,8.3,2.18,16.83,3.51,25.44,5.26a4.14,4.14,0,0,1-.65,1.15,38.11,38.11,0,0,0-9.81,20.22,5.53,5.53,0,0,1-4.23,4.91c-14.15,4.77-28.12,5.85-40.61-3.88-4.71-3.66-8.47-8.75-12-13.68-6.85-9.63-15.07-17-27.24-18.64a17.38,17.38,0,0,0-6.27.25c-1.53.36-3.72,1.39-4,2.53s1,3.12,2,4.39a15.19,15.19,0,0,0,4,3.29,48.1,48.1,0,0,1,20.78,25.28c9,24.15,31,32.08,53.28,30.09,4.1-.37,8.16-1.06,12.5-1.63.1.92.27,1.86.28,2.8.11,9,.23,18,.27,27,0,7.19-3.51,11.46-9.2,11.51A190.14,190.14,0,0,1,221.52,285.38l.06-.1a190.08,190.08,0,0,1,330.28-5.37l.07.12A189.14,189.14,0,0,1,578.26,376.59Z" transform="translate(-198.24 -186.59)"/>
</svg>
