<svg id="instagram" xmlns="http://www.w3.org/2000/svg" viewBox="0 0 300 300" fill="#fff">
  <path d="M556.55,212.1c-82.7,0-150,67.31-150,150s67.3,150,150,150,150-67.3,150-150S639.24,212.1,556.55,212.1Zm76.78,194.78c-4.59,17.5-16,27.85-33.69,30.7-13.34,2.18-72.85,2.55-85-.51-17.5-4.52-27.93-15.9-30.85-33.55-2.11-12.9-2.84-73.14.8-86.19,4.74-17,16.05-27.05,33.25-29.83,15-2.48,57.91-1.82,76-.87,10.57.58,20.2,3.94,28.15,11.45,7.51,7.14,11.37,16.11,12.39,26.18C635.59,336.36,636.83,393.46,633.33,406.88Zm-49.07-44.12A25.49,25.49,0,1,1,559,337.09,25.48,25.48,0,0,1,584.26,362.76Zm36.31-37.12c-1.53-13.56-9.77-22.46-23.19-24.5-13-2-62-1.82-75.62-.29-13.41,1.46-22.31,9.77-24.35,23-2.12,14.15-1.68,66.94.07,77.52,1.82,11.08,8.09,18.67,19.1,21.73,11.45,3.21,66.8,2.48,79.2,1.09,13.49-1.46,22.39-9.77,24.43-23.19S621.88,338.18,620.57,325.64Zm-61.76,76.28a39.38,39.38,0,1,1,39.37-39.38A39.35,39.35,0,0,1,558.81,401.92Zm40.91-71A9.23,9.23,0,1,1,609,321.7,9.21,9.21,0,0,1,599.72,330.89Z" transform="translate(-406.55 -212.1)"/>
</svg>
