<svg id="linkedin" xmlns="http://www.w3.org/2000/svg" viewBox="0 0 510.9 510.9" fill="#fff">
  <path d="M380.12,216.21c-141.08,0-255.45,114.37-255.45,255.45S239,727.1,380.12,727.1,635.57,612.74,635.57,471.66,521.2,216.21,380.12,216.21ZM305.89,602.06h-62v-187l62-.08ZM274.72,389.67c-20.23.07-34.71-13.45-34.7-32.41s14.54-32.38,35.31-32.32C295.49,325,310,338.67,310,357.57,309.93,376.11,295.11,389.6,274.72,389.67ZM529.9,602.22h-62c0-1.9.16-67.6-.12-98.7a83.22,83.22,0,0,0-2.67-21.64c-5.93-20.95-29.1-28.92-47.06-16.44-9,6.27-14.71,14.92-15.22,26.18-.42,9.3-.42,108.19-.42,110.46H340.56V415.44h61.79v25.48c1.53-1.68,2.21-2.28,2.72-3,15.18-21.8,36.71-29.5,62.13-26.58,35.15,4,57,26.93,61.51,63.38a171.35,171.35,0,0,1,1.36,20.37C530.21,529.34,530,600.46,529.9,602.22Z" transform="translate(-124.67 -216.21)"/>
</svg>
